<?xml version="1.0" standalone="no"?>
<svg xmlns:xlink="http://www.w3.org/1999/xlink" id="wave" style="transform:rotate(0deg); transition: 0.3s" viewBox="0 0 1440 140" version="1.1" xmlns="http://www.w3.org/2000/svg"><defs><linearGradient id="sw-gradient-0" x1="0" x2="0" y1="1" y2="0"><stop stop-color="rgba(255, 0, 200, 1)" offset="0%"/><stop stop-color="rgba(179, 0, 255, 1)" offset="100%"/></linearGradient></defs><path style="transform:translate(0, 0px); opacity:1" fill="url(#sw-gradient-0)" d="M0,98L24,84C48,70,96,42,144,32.7C192,23,240,33,288,46.7C336,61,384,79,432,93.3C480,107,528,117,576,109.7C624,103,672,79,720,79.3C768,79,816,103,864,95.7C912,89,960,51,1008,30.3C1056,9,1104,5,1152,11.7C1200,19,1248,37,1296,56C1344,75,1392,93,1440,84C1488,75,1536,37,1584,30.3C1632,23,1680,47,1728,53.7C1776,61,1824,51,1872,44.3C1920,37,1968,33,2016,30.3C2064,28,2112,28,2160,23.3C2208,19,2256,9,2304,9.3C2352,9,2400,19,2448,18.7C2496,19,2544,9,2592,9.3C2640,9,2688,19,2736,30.3C2784,42,2832,56,2880,60.7C2928,65,2976,61,3024,49C3072,37,3120,19,3168,18.7C3216,19,3264,37,3312,37.3C3360,37,3408,19,3432,9.3L3456,0L3456,140L3432,140C3408,140,3360,140,3312,140C3264,140,3216,140,3168,140C3120,140,3072,140,3024,140C2976,140,2928,140,2880,140C2832,140,2784,140,2736,140C2688,140,2640,140,2592,140C2544,140,2496,140,2448,140C2400,140,2352,140,2304,140C2256,140,2208,140,2160,140C2112,140,2064,140,2016,140C1968,140,1920,140,1872,140C1824,140,1776,140,1728,140C1680,140,1632,140,1584,140C1536,140,1488,140,1440,140C1392,140,1344,140,1296,140C1248,140,1200,140,1152,140C1104,140,1056,140,1008,140C960,140,912,140,864,140C816,140,768,140,720,140C672,140,624,140,576,140C528,140,480,140,432,140C384,140,336,140,288,140C240,140,192,140,144,140C96,140,48,140,24,140L0,140Z"/></svg>