<?xml version="1.0" standalone="no"?>
<svg xmlns:xlink="http://www.w3.org/1999/xlink" id="wave" style="transform:rotate(0deg); transition: 0.3s" viewBox="0 0 1440 230" version="1.1" xmlns="http://www.w3.org/2000/svg"><defs><linearGradient id="sw-gradient-0" x1="0" x2="0" y1="1" y2="0"><stop stop-color="rgba(255, 0, 200, 1)" offset="0%"/><stop stop-color="rgba(179, 0, 255, 1)" offset="100%"/></linearGradient></defs><path style="transform:translate(0, 0px); opacity:1" fill="url(#sw-gradient-0)" d="M0,161L24,138C48,115,96,69,144,53.7C192,38,240,54,288,76.7C336,100,384,130,432,153.3C480,176,528,192,576,180.2C624,169,672,130,720,130.3C768,130,816,169,864,157.2C912,146,960,84,1008,49.8C1056,15,1104,8,1152,19.2C1200,31,1248,61,1296,92C1344,123,1392,153,1440,138C1488,123,1536,61,1584,49.8C1632,38,1680,77,1728,88.2C1776,100,1824,84,1872,72.8C1920,61,1968,54,2016,49.8C2064,46,2112,46,2160,38.3C2208,31,2256,15,2304,15.3C2352,15,2400,31,2448,30.7C2496,31,2544,15,2592,15.3C2640,15,2688,31,2736,49.8C2784,69,2832,92,2880,99.7C2928,107,2976,100,3024,80.5C3072,61,3120,31,3168,30.7C3216,31,3264,61,3312,61.3C3360,61,3408,31,3432,15.3L3456,0L3456,230L3432,230C3408,230,3360,230,3312,230C3264,230,3216,230,3168,230C3120,230,3072,230,3024,230C2976,230,2928,230,2880,230C2832,230,2784,230,2736,230C2688,230,2640,230,2592,230C2544,230,2496,230,2448,230C2400,230,2352,230,2304,230C2256,230,2208,230,2160,230C2112,230,2064,230,2016,230C1968,230,1920,230,1872,230C1824,230,1776,230,1728,230C1680,230,1632,230,1584,230C1536,230,1488,230,1440,230C1392,230,1344,230,1296,230C1248,230,1200,230,1152,230C1104,230,1056,230,1008,230C960,230,912,230,864,230C816,230,768,230,720,230C672,230,624,230,576,230C528,230,480,230,432,230C384,230,336,230,288,230C240,230,192,230,144,230C96,230,48,230,24,230L0,230Z"/></svg>